<svg width="115" height="23" viewBox="0 0 115 23" fill="none" xmlns="http://www.w3.org/2000/svg">
<path d="M0.410156 11.2808V12.3893C0.410156 16.2692 3.29234 19.5948 7.06135 20.0382V22.3661H9.27841V20.0382C13.0474 19.4839 15.9296 16.2692 15.9296 12.3893V11.2808H13.7125V12.3893C13.7125 15.4932 11.1629 17.932 8.16988 17.932C5.06599 17.932 2.62722 15.4932 2.62722 12.3893V11.2808H0.410156Z" fill="#9766ED"/>
<path d="M15.9297 9.39111V8.28258C15.9297 4.40272 13.0475 1.07712 9.2785 0.633711L7.06143 0.633711C3.29242 1.18798 0.410242 4.40272 0.410242 8.28258V9.39111H2.62731V8.28258C2.62731 5.17869 5.17693 2.73992 8.16996 2.73992C11.2739 2.73992 13.7126 5.17869 13.7126 8.28258V9.39111H15.9297Z" fill="#9766ED"/>
<path d="M10.9044 12.3513V8.80403C10.9044 7.29643 9.75158 6.14355 8.24397 6.14355C6.73637 6.14355 5.5835 7.29643 5.5835 8.80403V12.3513C5.5835 13.8589 6.73637 15.0118 8.24397 15.0118C9.75158 15.0118 10.9044 13.8589 10.9044 12.3513Z" fill="#9766ED"/>
<path d="M26.547 15.9201C25.6707 15.9201 24.8819 15.7283 24.1808 15.3449C23.4798 14.9506 22.9265 14.3974 22.5212 13.6853C22.1269 12.9733 21.9297 12.1517 21.9297 11.2206C21.9297 10.2894 22.1323 9.46784 22.5377 8.75579C22.9539 8.04375 23.5181 7.49602 24.2301 7.11262C24.9422 6.71825 25.7364 6.52107 26.6127 6.52107C27.4891 6.52107 28.2833 6.71825 28.9954 7.11262C29.7074 7.49602 30.2661 8.04375 30.6714 8.75579C31.0877 9.46784 31.2958 10.2894 31.2958 11.2206C31.2958 12.1517 31.0822 12.9733 30.655 13.6853C30.2387 14.3974 29.6691 14.9506 28.9461 15.3449C28.234 15.7283 27.4343 15.9201 26.547 15.9201ZM26.547 13.9154C26.9633 13.9154 27.3522 13.8168 27.7137 13.6196C28.0861 13.4115 28.3819 13.1047 28.601 12.6994C28.8201 12.2941 28.9296 11.8012 28.9296 11.2206C28.9296 10.3552 28.6996 9.69241 28.2395 9.23232C27.7904 8.76127 27.2372 8.52575 26.5799 8.52575C25.9226 8.52575 25.3694 8.76127 24.9203 9.23232C24.4821 9.69241 24.263 10.3552 24.263 11.2206C24.263 12.086 24.4766 12.7542 24.9038 13.2252C25.342 13.6853 25.8897 13.9154 26.547 13.9154Z" fill="#0F172A"/>
<path d="M35.2837 7.9835C35.5795 7.56723 35.9848 7.22216 36.4997 6.9483C37.0255 6.66348 37.6225 6.52107 38.2907 6.52107C39.0685 6.52107 39.7696 6.71278 40.394 7.09618C41.0294 7.47959 41.5278 8.02732 41.8893 8.73936C42.2617 9.44045 42.448 10.2566 42.448 11.1877C42.448 12.1188 42.2617 12.9459 41.8893 13.6689C41.5278 14.3809 41.0294 14.9341 40.394 15.3285C39.7696 15.7229 39.0685 15.9201 38.2907 15.9201C37.6225 15.9201 37.031 15.7831 36.5161 15.5093C36.0122 15.2354 35.6014 14.8903 35.2837 14.4741V20.1102H32.9833V6.66896H35.2837V7.9835ZM40.0982 11.1877C40.0982 10.64 39.9832 10.1689 39.7532 9.77456C39.5341 9.36925 39.2383 9.06252 38.8658 8.85438C38.5043 8.64625 38.11 8.54218 37.6828 8.54218C37.2665 8.54218 36.8721 8.65173 36.4997 8.87082C36.1382 9.07895 35.8424 9.38568 35.6124 9.791C35.3933 10.1963 35.2837 10.6728 35.2837 11.2206C35.2837 11.7683 35.3933 12.2448 35.6124 12.6501C35.8424 13.0554 36.1382 13.3676 36.4997 13.5867C36.8721 13.7949 37.2665 13.8989 37.6828 13.8989C38.11 13.8989 38.5043 13.7894 38.8658 13.5703C39.2383 13.3512 39.5341 13.039 39.7532 12.6337C39.9832 12.2284 40.0982 11.7464 40.0982 11.1877Z" fill="#0F172A"/>
<path d="M52.582 11.0234C52.582 11.352 52.5601 11.6478 52.5163 11.9107H45.8614C45.9162 12.568 46.1462 13.0828 46.5516 13.4553C46.9569 13.8277 47.4553 14.014 48.0468 14.014C48.9013 14.014 49.5093 13.647 49.8708 12.913H52.352C52.0891 13.7894 51.5852 14.5124 50.8402 15.082C50.0953 15.6407 49.1806 15.9201 48.0961 15.9201C47.2198 15.9201 46.4311 15.7283 45.73 15.3449C45.0398 14.9506 44.4976 14.3974 44.1032 13.6853C43.7198 12.9733 43.5281 12.1517 43.5281 11.2206C43.5281 10.2785 43.7198 9.45141 44.1032 8.73936C44.4866 8.02732 45.0234 7.47959 45.7135 7.09618C46.4037 6.71278 47.1979 6.52107 48.0961 6.52107C48.9615 6.52107 49.7338 6.7073 50.413 7.07975C51.1032 7.45221 51.6345 7.9835 52.0069 8.67364C52.3903 9.35282 52.582 10.1361 52.582 11.0234ZM50.1994 10.3661C50.1885 9.77456 49.9748 9.30352 49.5586 8.95298C49.1423 8.59148 48.6329 8.41073 48.0304 8.41073C47.4608 8.41073 46.9788 8.586 46.5844 8.93654C46.201 9.27613 45.9655 9.75266 45.8779 10.3661H50.1994Z" fill="#0F172A"/>
<path d="M59.3057 6.5375C60.3902 6.5375 61.2666 6.88257 61.9348 7.57271C62.603 8.25189 62.9371 9.20493 62.9371 10.4318V15.7722H60.6367V10.744C60.6367 10.021 60.4559 9.46784 60.0944 9.08443C59.7329 8.69007 59.24 8.49289 58.6156 8.49289C57.9802 8.49289 57.4763 8.69007 57.1038 9.08443C56.7423 9.46784 56.5616 10.021 56.5616 10.744V15.7722H54.2611V6.66896H56.5616V7.80275C56.8683 7.40839 57.2572 7.10166 57.7282 6.88257C58.2102 6.65253 58.7361 6.5375 59.3057 6.5375Z" fill="#0F172A"/>
<path d="M76.4298 6.5375C77.5472 6.5375 78.4454 6.88257 79.1246 7.57271C79.8147 8.25189 80.1598 9.20493 80.1598 10.4318V15.7722H77.8594V10.744C77.8594 10.032 77.6786 9.48975 77.3171 9.11729C76.9556 8.73389 76.4627 8.54218 75.8382 8.54218C75.2138 8.54218 74.7154 8.73389 74.343 9.11729C73.9815 9.48975 73.8007 10.032 73.8007 10.744V15.7722H71.5003V10.744C71.5003 10.032 71.3195 9.48975 70.958 9.11729C70.5965 8.73389 70.1036 8.54218 69.4792 8.54218C68.8438 8.54218 68.3399 8.73389 67.9674 9.11729C67.6059 9.48975 67.4252 10.032 67.4252 10.744V15.7722H65.1247V6.66896H67.4252V7.76989C67.721 7.38648 68.0989 7.08523 68.559 6.86614C69.03 6.64705 69.5449 6.5375 70.1036 6.5375C70.8156 6.5375 71.451 6.69087 72.0096 6.99759C72.5683 7.29337 73.001 7.72059 73.3078 8.27927C73.6035 7.75346 74.0308 7.33171 74.5894 7.01402C75.1591 6.69634 75.7725 6.5375 76.4298 6.5375Z" fill="#0F172A"/>
<path d="M83.5094 5.58446C83.1041 5.58446 82.7645 5.45848 82.4907 5.20653C82.2278 4.94362 82.0963 4.62046 82.0963 4.23705C82.0963 3.85365 82.2278 3.53596 82.4907 3.28401C82.7645 3.0211 83.1041 2.88965 83.5094 2.88965C83.9148 2.88965 84.2489 3.0211 84.5118 3.28401C84.7857 3.53596 84.9226 3.85365 84.9226 4.23705C84.9226 4.62046 84.7857 4.94362 84.5118 5.20653C84.2489 5.45848 83.9148 5.58446 83.5094 5.58446ZM84.6432 6.66896V15.7722H82.3428V6.66896H84.6432Z" fill="#0F172A"/>
<path d="M86.3245 11.2206C86.3245 10.2785 86.5162 9.45688 86.8997 8.75579C87.2831 8.04375 87.8144 7.49602 88.4935 7.11262C89.1727 6.71825 89.9505 6.52107 90.8269 6.52107C91.9552 6.52107 92.8863 6.80589 93.6203 7.37552C94.3652 7.93421 94.8636 8.72293 95.1156 9.7417H92.6344C92.5029 9.34734 92.2783 9.04061 91.9606 8.82152C91.6539 8.59148 91.2705 8.47645 90.8104 8.47645C90.1532 8.47645 89.6328 8.71745 89.2494 9.19945C88.866 9.6705 88.6743 10.3442 88.6743 11.2206C88.6743 12.086 88.866 12.7597 89.2494 13.2417C89.6328 13.7127 90.1532 13.9482 90.8104 13.9482C91.7416 13.9482 92.3495 13.532 92.6344 12.6994H95.1156C94.8636 13.6853 94.3652 14.4686 93.6203 15.0492C92.8754 15.6298 91.9442 15.9201 90.8269 15.9201C89.9505 15.9201 89.1727 15.7283 88.4935 15.3449C87.8144 14.9506 87.2831 14.4028 86.8997 13.7018C86.5162 12.9897 86.3245 12.1626 86.3245 11.2206Z" fill="#0F172A"/>
<path d="M97.8196 15.8872C97.4033 15.8872 97.0583 15.7612 96.7844 15.5093C96.5215 15.2463 96.39 14.9232 96.39 14.5398C96.39 14.1564 96.5215 13.8387 96.7844 13.5867C97.0583 13.3238 97.4033 13.1924 97.8196 13.1924C98.2249 13.1924 98.559 13.3238 98.8219 13.5867C99.0849 13.8387 99.2163 14.1564 99.2163 14.5398C99.2163 14.9232 99.0849 15.2463 98.8219 15.5093C98.559 15.7612 98.2249 15.8872 97.8196 15.8872Z" fill="#0F172A"/>
<path d="M100.478 11.1877C100.478 10.2675 100.658 9.45141 101.02 8.73936C101.392 8.02732 101.891 7.47959 102.515 7.09618C103.151 6.71278 103.857 6.52107 104.635 6.52107C105.314 6.52107 105.906 6.658 106.41 6.93187C106.924 7.20573 107.335 7.5508 107.642 7.96707V6.66896H109.959V15.7722H107.642V14.4412C107.346 14.8684 106.935 15.2244 106.41 15.5093C105.895 15.7831 105.298 15.9201 104.619 15.9201C103.852 15.9201 103.151 15.7229 102.515 15.3285C101.891 14.9341 101.392 14.3809 101.02 13.6689C100.658 12.9459 100.478 12.1188 100.478 11.1877ZM107.642 11.2206C107.642 10.6619 107.532 10.1854 107.313 9.791C107.094 9.38568 106.798 9.07895 106.426 8.87082C106.054 8.65173 105.654 8.54218 105.226 8.54218C104.799 8.54218 104.405 8.64625 104.043 8.85438C103.682 9.06252 103.386 9.36925 103.156 9.77456C102.937 10.1689 102.827 10.64 102.827 11.1877C102.827 11.7354 102.937 12.2174 103.156 12.6337C103.386 13.039 103.682 13.3512 104.043 13.5703C104.416 13.7894 104.81 13.8989 105.226 13.8989C105.654 13.8989 106.054 13.7949 106.426 13.5867C106.798 13.3676 107.094 13.0609 107.313 12.6666C107.532 12.2612 107.642 11.7792 107.642 11.2206Z" fill="#0F172A"/>
<path d="M113.372 5.58446C112.967 5.58446 112.627 5.45848 112.354 5.20653C112.091 4.94362 111.959 4.62046 111.959 4.23705C111.959 3.85365 112.091 3.53596 112.354 3.28401C112.627 3.0211 112.967 2.88965 113.372 2.88965C113.778 2.88965 114.112 3.0211 114.375 3.28401C114.648 3.53596 114.785 3.85365 114.785 4.23705C114.785 4.62046 114.648 4.94362 114.375 5.20653C114.112 5.45848 113.778 5.58446 113.372 5.58446ZM114.506 6.66896V15.7722H112.206V6.66896H114.506Z" fill="#0F172A"/>
</svg>
